<?xml version="1.0" standalone="no"?><!DOCTYPE svg PUBLIC "-//W3C//DTD SVG 1.1//EN" "http://www.w3.org/Graphics/SVG/1.1/DTD/svg11.dtd"><svg t="1709863172612" class="icon" viewBox="0 0 1024 1024" version="1.1" xmlns="http://www.w3.org/2000/svg" p-id="49188" xmlns:xlink="http://www.w3.org/1999/xlink" width="200" height="200"><path d="M829.58602482 926.23751794h27.61681646V953.86906337h-27.61681646z" fill="#515151" p-id="49189"></path><path d="M829.58602482 898.63543045h27.61681646v27.61681646h-27.61681646z" fill="#515151" p-id="49190"></path><path d="M829.58602482 732.9345317h27.61681646v27.61681645h-27.61681646z" fill="#515151" p-id="49191"></path><path d="M829.58602482 705.31771523h27.61681646v27.63154543h-27.61681646z m0-27.61681647h27.61681646v27.61681647h-27.61681646z m0-27.63154543h27.61681646v27.63154543h-27.61681646z" fill="#515151" p-id="49192"></path><path d="M829.58602482 622.46726585h27.61681646v27.61681646h-27.61681646z m0-27.61681646h27.61681646V622.46726585h-27.61681646z" fill="#515151" p-id="49193"></path><path d="M829.58602482 567.23363292h27.61681646v27.63154544h-27.61681646z m0-27.61681646h27.61681646v27.61681646h-27.61681646z" fill="#515151" p-id="49194"></path><path d="M829.58602482 318.68228477h27.61681646v27.61681647h-27.61681646z" fill="#515151" p-id="49195"></path><path d="M829.58602482 291.0654683h27.61681646v27.63154545h-27.61681646z" fill="#515151" p-id="49196"></path><path d="M801.98393732 926.23751794h27.61681646V953.86906337h-27.61681646z" fill="#515151" p-id="49197"></path><path d="M801.98393732 898.63543045h27.61681646v27.61681646h-27.61681646z" fill="#515151" p-id="49198"></path><path d="M801.98393732 732.9345317h27.61681646v27.61681645h-27.61681646z" fill="#515151" p-id="49199"></path><path d="M801.98393732 705.31771523h27.61681646v27.63154543h-27.61681646z m0-27.61681647h27.61681646v27.61681647h-27.61681646z m0-27.63154543h27.61681646v27.63154543h-27.61681646z" fill="#515151" p-id="49200"></path><path d="M801.98393732 622.46726585h27.61681646v27.61681646h-27.61681646z m0-27.61681646h27.61681646V622.46726585h-27.61681646z" fill="#515151" p-id="49201"></path><path d="M801.98393732 567.23363292h27.61681646v27.63154544h-27.61681646z m0-27.61681646h27.61681646v27.61681646h-27.61681646z" fill="#515151" p-id="49202"></path><path d="M801.98393732 318.68228477h27.61681646v27.61681647h-27.61681646z" fill="#515151" p-id="49203"></path><path d="M801.98393732 291.0654683h27.61681646v27.63154545h-27.61681646z" fill="#515151" p-id="49204"></path><path d="M774.35239189 926.23751794h27.63154543V953.86906337h-27.63154543z" fill="#515151" p-id="49205"></path><path d="M774.35239189 898.63543045h27.63154543v27.61681646h-27.63154543z m0-27.63154544h27.63154543v27.63154544h-27.63154543z" fill="#515151" p-id="49206"></path><path d="M774.35239189 843.40179753h27.63154543v27.61681645h-27.63154543z" fill="#515151" p-id="49207"></path><path d="M774.35239189 732.9345317h27.63154543v27.61681645h-27.63154543z" fill="#515151" p-id="49208"></path><path d="M774.35239189 705.31771523h27.63154543v27.63154543h-27.63154543z m0-27.61681647h27.63154543v27.61681647h-27.63154543z m0-27.63154543h27.63154543v27.63154543h-27.63154543z" fill="#515151" p-id="49209"></path><path d="M774.35239189 622.46726585h27.63154543v27.61681646h-27.63154543z m0-27.61681646h27.63154543V622.46726585h-27.63154543z" fill="#515151" p-id="49210"></path><path d="M774.35239189 567.23363292h27.63154543v27.63154544h-27.63154543z m0-27.61681646h27.63154543v27.61681646h-27.63154543z m0-27.63154544h27.63154543v27.63154544h-27.63154543z" fill="#515151" p-id="49211"></path><path d="M774.35239189 484.38318354h27.63154543V512h-27.63154543z m0-110.45253687h27.63154543v27.61681647h-27.63154543z m0-27.63154543h27.63154543v27.63154543h-27.63154543z" fill="#515151" p-id="49212"></path><path d="M774.35239189 318.68228477h27.63154543v27.61681647h-27.63154543z" fill="#515151" p-id="49213"></path><path d="M774.35239189 291.0654683h27.63154543v27.63154545h-27.63154543z m0-27.61681645h27.63154543V291.0654683h-27.63154543z" fill="#515151" p-id="49214"></path><path d="M774.35239189 235.84656437h27.63154543v27.61681645h-27.63154543z" fill="#515151" p-id="49215"></path><path d="M774.35239189 152.98138602h27.63154543v27.63154541h-27.63154543z m0-27.61681647h27.63154543v27.61681647h-27.63154543z" fill="#515151" p-id="49216"></path><path d="M746.75030441 926.23751794h27.61681644V953.86906337h-27.61681644z" fill="#515151" p-id="49217"></path><path d="M746.75030441 898.63543045h27.61681644v27.61681646h-27.61681644z m0-27.63154544h27.61681644v27.63154544h-27.61681644z" fill="#515151" p-id="49218"></path><path d="M746.75030441 843.40179753h27.61681644v27.61681645h-27.61681644z" fill="#515151" p-id="49219"></path><path d="M746.75030441 732.9345317h27.61681644v27.61681645h-27.61681644z" fill="#515151" p-id="49220"></path><path d="M746.75030441 705.31771523h27.61681644v27.63154543h-27.61681644z m0-27.61681647h27.61681644v27.61681647h-27.61681644z m0-27.63154543h27.61681644v27.63154543h-27.61681644z" fill="#515151" p-id="49221"></path><path d="M746.75030441 622.46726585h27.61681644v27.61681646h-27.61681644z m0-27.61681646h27.61681644V622.46726585h-27.61681644z" fill="#515151" p-id="49222"></path><path d="M746.75030441 567.23363292h27.61681644v27.63154544h-27.61681644z m0-27.61681646h27.61681644v27.61681646h-27.61681644z m0-27.63154544h27.61681644v27.63154544h-27.61681644z" fill="#515151" p-id="49223"></path><path d="M746.75030441 484.38318354h27.61681644V512h-27.61681644z m0-110.45253687h27.61681644v27.61681647h-27.61681644z m0-27.63154543h27.61681644v27.63154543h-27.61681644z" fill="#515151" p-id="49224"></path><path d="M746.75030441 318.68228477h27.61681644v27.61681647h-27.61681644z" fill="#515151" p-id="49225"></path><path d="M746.75030441 291.0654683h27.61681644v27.63154545h-27.61681644z m0-27.61681645h27.61681644V291.0654683h-27.61681644z" fill="#515151" p-id="49226"></path><path d="M746.75030441 235.84656437h27.61681644v27.61681645h-27.61681644z" fill="#515151" p-id="49227"></path><path d="M746.75030441 152.98138602h27.61681644v27.63154541h-27.61681644z m0-27.61681647h27.61681644v27.61681647h-27.61681644z" fill="#515151" p-id="49228"></path><path d="M719.11875897 926.23751794h27.63154544V953.86906337h-27.63154544z" fill="#515151" p-id="49229"></path><path d="M719.11875897 898.63543045h27.63154544v27.61681646h-27.63154544z m0-27.63154544h27.63154544v27.63154544h-27.63154544z" fill="#515151" p-id="49230"></path><path d="M719.11875897 843.40179753h27.63154544v27.61681645h-27.63154544z" fill="#515151" p-id="49231"></path><path d="M719.11875897 815.78498107h27.63154544V843.40179753h-27.63154544z m0-27.63154544h27.63154544v27.63154544h-27.63154544z" fill="#515151" p-id="49232"></path><path d="M719.11875897 760.55134815h27.63154544v27.61681645h-27.63154544z m0-27.61681645h27.63154544v27.61681645h-27.63154544z" fill="#515151" p-id="49233"></path><path d="M719.11875897 705.31771523h27.63154544v27.63154543h-27.63154544z" fill="#515151" p-id="49234"></path><path d="M719.11875897 677.70089876h27.63154544v27.61681647h-27.63154544z m0-27.63154543h27.63154544v27.63154543h-27.63154544z" fill="#515151" p-id="49235"></path><path d="M719.11875897 622.46726585h27.63154544v27.61681646h-27.63154544z m0-27.61681646h27.63154544V622.46726585h-27.63154544z" fill="#515151" p-id="49236"></path><path d="M719.11875897 567.23363292h27.63154544v27.63154544h-27.63154544z m0-27.61681646h27.63154544v27.61681646h-27.63154544z m0-27.63154544h27.63154544v27.63154544h-27.63154544z" fill="#515151" p-id="49237"></path><path d="M719.11875897 484.38318354h27.63154544V512h-27.63154544z m0-27.61681646h27.63154544v27.61681646h-27.63154544z" fill="#515151" p-id="49238"></path><path d="M719.11875897 429.14955061h27.63154544v27.63154543h-27.63154544z" fill="#515151" p-id="49239"></path><path d="M719.11875897 401.53273415h27.63154544v27.61681646h-27.63154544z" fill="#515151" p-id="49240"></path><path d="M719.11875897 373.93064667h27.63154544v27.61681647h-27.63154544z m0-27.63154543h27.63154544v27.63154543h-27.63154544z" fill="#515151" p-id="49241"></path><path d="M719.11875897 318.68228477h27.63154544v27.61681647h-27.63154544z" fill="#515151" p-id="49242"></path><path d="M719.11875897 291.0654683h27.63154544v27.63154545h-27.63154544z m0-27.61681645h27.63154544V291.0654683h-27.63154544z" fill="#515151" p-id="49243"></path><path d="M719.11875897 235.84656437h27.63154544v27.61681645h-27.63154544z" fill="#515151" p-id="49244"></path><path d="M719.11875897 152.98138602h27.63154544v27.63154541h-27.63154544z m0-27.61681647h27.63154544v27.61681647h-27.63154544z" fill="#515151" p-id="49245"></path><path d="M691.50194252 926.23751794h27.61681645V953.86906337h-27.61681645z" fill="#515151" p-id="49246"></path><path d="M691.50194252 898.63543045h27.61681645v27.61681646h-27.61681645z m0-27.63154544h27.61681645v27.63154544h-27.61681645z" fill="#515151" p-id="49247"></path><path d="M691.50194252 843.40179753h27.61681645v27.61681645h-27.61681645z" fill="#515151" p-id="49248"></path><path d="M691.50194252 815.78498107h27.61681645V843.40179753h-27.61681645z m0-27.63154544h27.61681645v27.63154544h-27.61681645z" fill="#515151" p-id="49249"></path><path d="M691.50194252 760.55134815h27.61681645v27.61681645h-27.61681645z m0-27.61681645h27.61681645v27.61681645h-27.61681645z" fill="#515151" p-id="49250"></path><path d="M691.50194252 705.31771523h27.61681645v27.63154543h-27.61681645z" fill="#515151" p-id="49251"></path><path d="M691.50194252 677.70089876h27.61681645v27.61681647h-27.61681645z m0-27.63154543h27.61681645v27.63154543h-27.61681645z" fill="#515151" p-id="49252"></path><path d="M691.50194252 622.46726585h27.61681645v27.61681646h-27.61681645z m0-27.61681646h27.61681645V622.46726585h-27.61681645z" fill="#515151" p-id="49253"></path><path d="M691.50194252 567.23363292h27.61681645v27.63154544h-27.61681645z m0-27.61681646h27.61681645v27.61681646h-27.61681645z m0-27.63154544h27.61681645v27.63154544h-27.61681645z" fill="#515151" p-id="49254"></path><path d="M691.50194252 484.38318354h27.61681645V512h-27.61681645z m0-27.61681646h27.61681645v27.61681646h-27.61681645z" fill="#515151" p-id="49255"></path><path d="M691.50194252 429.14955061h27.61681645v27.63154543h-27.61681645z" fill="#515151" p-id="49256"></path><path d="M691.50194252 401.53273415h27.61681645v27.61681646h-27.61681645z" fill="#515151" p-id="49257"></path><path d="M691.50194252 373.93064667h27.61681645v27.61681647h-27.61681645z m0-27.63154543h27.61681645v27.63154543h-27.61681645z" fill="#515151" p-id="49258"></path><path d="M691.50194252 318.68228477h27.61681645v27.61681647h-27.61681645z" fill="#515151" p-id="49259"></path><path d="M691.50194252 291.0654683h27.61681645v27.63154545h-27.61681645z m0-27.61681645h27.61681645V291.0654683h-27.61681645z" fill="#515151" p-id="49260"></path><path d="M691.50194252 235.84656437h27.61681645v27.61681645h-27.61681645z" fill="#515151" p-id="49261"></path><path d="M691.50194252 152.98138602h27.61681645v27.63154541h-27.61681645z m0-27.61681647h27.61681645v27.61681647h-27.61681645z" fill="#515151" p-id="49262"></path><path d="M663.89985502 926.23751794h27.61681645V953.86906337h-27.61681645z" fill="#515151" p-id="49263"></path><path d="M663.89985502 898.63543045h27.61681645v27.61681646h-27.61681645z m0-27.63154544h27.61681645v27.63154544h-27.61681645z" fill="#515151" p-id="49264"></path><path d="M663.89985502 843.40179753h27.61681645v27.61681645h-27.61681645z" fill="#515151" p-id="49265"></path><path d="M663.89985502 815.78498107h27.61681645V843.40179753h-27.61681645z m0-27.63154544h27.61681645v27.63154544h-27.61681645z" fill="#515151" p-id="49266"></path><path d="M663.89985502 760.55134815h27.61681645v27.61681645h-27.61681645z m0-27.61681645h27.61681645v27.61681645h-27.61681645z" fill="#515151" p-id="49267"></path><path d="M663.89985502 705.31771523h27.61681645v27.63154543h-27.61681645z m0-27.61681647h27.61681645v27.61681647h-27.61681645z m0-27.63154543h27.61681645v27.63154543h-27.61681645z" fill="#515151" p-id="49268"></path><path d="M663.89985502 622.46726585h27.61681645v27.61681646h-27.61681645z m0-27.61681646h27.61681645V622.46726585h-27.61681645z" fill="#515151" p-id="49269"></path><path d="M663.89985502 567.23363292h27.61681645v27.63154544h-27.61681645z m0-27.61681646h27.61681645v27.61681646h-27.61681645z m0-27.63154544h27.61681645v27.63154544h-27.61681645z" fill="#515151" p-id="49270"></path><path d="M663.89985502 484.38318354h27.61681645V512h-27.61681645z m0-27.61681646h27.61681645v27.61681646h-27.61681645z" fill="#515151" p-id="49271"></path><path d="M663.89985502 429.14955061h27.61681645v27.63154543h-27.61681645z" fill="#515151" p-id="49272"></path><path d="M663.89985502 401.53273415h27.61681645v27.61681646h-27.61681645z" fill="#515151" p-id="49273"></path><path d="M663.89985502 373.93064667h27.61681645v27.61681647h-27.61681645z m0-27.63154543h27.61681645v27.63154543h-27.61681645z m0-27.61681647h27.61681645v27.61681647h-27.61681645z" fill="#515151" p-id="49274"></path><path d="M663.89985502 291.0654683h27.61681645v27.63154545h-27.61681645z" fill="#515151" p-id="49275"></path><path d="M663.89985502 263.44865185h27.61681645V291.0654683h-27.61681645z" fill="#515151" p-id="49276"></path><path d="M663.89985502 235.84656437h27.61681645v27.61681645h-27.61681645z m0-27.63154544h27.61681645v27.63154544h-27.61681645z m0-27.61681646h27.61681645v27.61681646h-27.61681645z" fill="#515151" p-id="49277"></path><path d="M663.89985502 152.98138602h27.61681645v27.63154541h-27.61681645z m0-27.61681647h27.61681645v27.61681647h-27.61681645z" fill="#515151" p-id="49278"></path><path d="M636.26830958 926.23751794h27.63154544V953.86906337h-27.63154544z" fill="#515151" p-id="49279"></path><path d="M636.26830958 898.63543045h27.63154544v27.61681646h-27.63154544z m0-27.63154544h27.63154544v27.63154544h-27.63154544z" fill="#515151" p-id="49280"></path><path d="M636.26830958 843.40179753h27.63154544v27.61681645h-27.63154544z" fill="#515151" p-id="49281"></path><path d="M636.26830958 815.78498107h27.63154544V843.40179753h-27.63154544z m0-27.63154544h27.63154544v27.63154544h-27.63154544z" fill="#515151" p-id="49282"></path><path d="M636.26830958 760.55134815h27.63154544v27.61681645h-27.63154544z m0-27.61681645h27.63154544v27.61681645h-27.63154544z" fill="#515151" p-id="49283"></path><path d="M636.26830958 705.31771523h27.63154544v27.63154543h-27.63154544z m0-27.61681647h27.63154544v27.61681647h-27.63154544z m0-27.63154543h27.63154544v27.63154543h-27.63154544z" fill="#515151" p-id="49284"></path><path d="M636.26830958 622.46726585h27.63154544v27.61681646h-27.63154544z m0-27.61681646h27.63154544V622.46726585h-27.63154544z" fill="#515151" p-id="49285"></path><path d="M636.26830958 567.23363292h27.63154544v27.63154544h-27.63154544z m0-27.61681646h27.63154544v27.61681646h-27.63154544z m0-27.63154544h27.63154544v27.63154544h-27.63154544z" fill="#515151" p-id="49286"></path><path d="M636.26830958 484.38318354h27.63154544V512h-27.63154544z m0-27.61681646h27.63154544v27.61681646h-27.63154544z" fill="#515151" p-id="49287"></path><path d="M636.26830958 429.14955061h27.63154544v27.63154543h-27.63154544z" fill="#515151" p-id="49288"></path><path d="M636.26830958 401.53273415h27.63154544v27.61681646h-27.63154544z" fill="#515151" p-id="49289"></path><path d="M636.26830958 373.93064667h27.63154544v27.61681647h-27.63154544z m0-27.63154543h27.63154544v27.63154543h-27.63154544z m0-27.61681647h27.63154544v27.61681647h-27.63154544z" fill="#515151" p-id="49290"></path><path d="M636.26830958 291.0654683h27.63154544v27.63154545h-27.63154544z" fill="#515151" p-id="49291"></path><path d="M636.26830958 263.44865185h27.63154544V291.0654683h-27.63154544z" fill="#515151" p-id="49292"></path><path d="M636.26830958 235.84656437h27.63154544v27.61681645h-27.63154544z m0-27.63154544h27.63154544v27.63154544h-27.63154544z m0-27.61681646h27.63154544v27.61681646h-27.63154544z" fill="#515151" p-id="49293"></path><path d="M636.26830958 152.98138602h27.63154544v27.63154541h-27.63154544z m0-27.61681647h27.63154544v27.61681647h-27.63154544z m-27.60208749 690.42041152h27.61681647V843.40179753h-27.61681647z m0-27.63154544h27.61681647v27.63154544h-27.61681647z" fill="#515151" p-id="49294"></path><path d="M608.66622209 760.55134815h27.61681647v27.61681645h-27.61681647z m0-27.61681645h27.61681647v27.61681645h-27.61681647z" fill="#515151" p-id="49295"></path><path d="M608.66622209 705.31771523h27.61681647v27.63154543h-27.61681647z m0-27.61681647h27.61681647v27.61681647h-27.61681647z m0-27.63154543h27.61681647v27.63154543h-27.61681647z" fill="#515151" p-id="49296"></path><path d="M608.66622209 622.46726585h27.61681647v27.61681646h-27.61681647z m0-27.61681646h27.61681647V622.46726585h-27.61681647z" fill="#515151" p-id="49297"></path><path d="M608.66622209 567.23363292h27.61681647v27.63154544h-27.61681647z m0-27.61681646h27.61681647v27.61681646h-27.61681647z m0-27.63154544h27.61681647v27.63154544h-27.61681647z" fill="#515151" p-id="49298"></path><path d="M608.66622209 484.38318354h27.61681647V512h-27.61681647z m0-27.61681646h27.61681647v27.61681646h-27.61681647z" fill="#515151" p-id="49299"></path><path d="M608.66622209 429.14955061h27.61681647v27.63154543h-27.61681647z" fill="#515151" p-id="49300"></path><path d="M608.66622209 401.53273415h27.61681647v27.61681646h-27.61681647z" fill="#515151" p-id="49301"></path><path d="M608.66622209 373.93064667h27.61681647v27.61681647h-27.61681647z m0-27.63154543h27.61681647v27.63154543h-27.61681647z" fill="#515151" p-id="49302"></path><path d="M608.66622209 318.68228477h27.61681647v27.61681647h-27.61681647z" fill="#515151" p-id="49303"></path><path d="M608.66622209 291.0654683h27.61681647v27.63154545h-27.61681647z" fill="#515151" p-id="49304"></path><path d="M608.66622209 263.44865185h27.61681647V291.0654683h-27.61681647z" fill="#515151" p-id="49305"></path><path d="M608.66622209 235.84656437h27.61681647v27.61681645h-27.61681647z m0-27.63154544h27.61681647v27.63154544h-27.61681647z m0-27.61681646h27.61681647v27.61681646h-27.61681647z" fill="#515151" p-id="49306"></path><path d="M608.66622209 152.98138602h27.61681647v27.63154541h-27.61681647z m0-27.61681647h27.61681647v27.61681647h-27.61681647z" fill="#515151" p-id="49307"></path><path d="M608.66622209 97.76248206h27.61681647v27.61681646h-27.61681647z m0-27.63154543h27.61681647v27.63154543h-27.61681647z m-27.63154541 745.65404444h27.63154541V843.40179753h-27.63154541z m0-27.63154544h27.63154541v27.63154544h-27.63154541z" fill="#515151" p-id="49308"></path><path d="M581.03467668 760.55134815h27.63154541v27.61681645h-27.63154541z m0-27.61681645h27.63154541v27.61681645h-27.63154541z" fill="#515151" p-id="49309"></path><path d="M581.03467668 705.31771523h27.63154541v27.63154543h-27.63154541z m0-27.61681647h27.63154541v27.61681647h-27.63154541z m0-27.63154543h27.63154541v27.63154543h-27.63154541z" fill="#515151" p-id="49310"></path><path d="M581.03467668 622.46726585h27.63154541v27.61681646h-27.63154541z m0-27.61681646h27.63154541V622.46726585h-27.63154541z" fill="#515151" p-id="49311"></path><path d="M581.03467668 567.23363292h27.63154541v27.63154544h-27.63154541z m0-27.61681646h27.63154541v27.61681646h-27.63154541z m0-27.63154544h27.63154541v27.63154544h-27.63154541z" fill="#515151" p-id="49312"></path><path d="M581.03467668 484.38318354h27.63154541V512h-27.63154541z m0-27.61681646h27.63154541v27.61681646h-27.63154541z" fill="#515151" p-id="49313"></path><path d="M581.03467668 429.14955061h27.63154541v27.63154543h-27.63154541z" fill="#515151" p-id="49314"></path><path d="M581.03467668 401.53273415h27.63154541v27.61681646h-27.63154541z" fill="#515151" p-id="49315"></path><path d="M581.03467668 373.93064667h27.63154541v27.61681647h-27.63154541z m0-27.63154543h27.63154541v27.63154543h-27.63154541z" fill="#515151" p-id="49316"></path><path d="M581.03467668 318.68228477h27.63154541v27.61681647h-27.63154541z" fill="#515151" p-id="49317"></path><path d="M581.03467668 291.0654683h27.63154541v27.63154545h-27.63154541z" fill="#515151" p-id="49318"></path><path d="M581.03467668 263.44865185h27.63154541V291.0654683h-27.63154541z" fill="#515151" p-id="49319"></path><path d="M581.03467668 235.84656437h27.63154541v27.61681645h-27.63154541z m0-27.63154544h27.63154541v27.63154544h-27.63154541z m0-27.61681646h27.63154541v27.61681646h-27.63154541z" fill="#515151" p-id="49320"></path><path d="M581.03467668 152.98138602h27.63154541v27.63154541h-27.63154541z m0-27.61681647h27.63154541v27.61681647h-27.63154541z" fill="#515151" p-id="49321"></path><path d="M581.03467668 97.76248206h27.63154541v27.61681646h-27.63154541z m0-27.63154543h27.63154541v27.63154543h-27.63154541z m-27.61681648 690.42041152h27.61681648v27.61681645h-27.61681648z m0-27.61681645h27.61681648v27.61681645h-27.61681648z" fill="#515151" p-id="49322"></path><path d="M553.4178602 705.31771523h27.61681648v27.63154543h-27.61681648z m0-27.61681647h27.61681648v27.61681647h-27.61681648z m0-27.63154543h27.61681648v27.63154543h-27.61681648z" fill="#515151" p-id="49323"></path><path d="M553.4178602 622.46726585h27.61681648v27.61681646h-27.61681648z m0-27.61681646h27.61681648V622.46726585h-27.61681648z" fill="#515151" p-id="49324"></path><path d="M553.4178602 567.23363292h27.61681648v27.63154544h-27.61681648z m0-27.61681646h27.61681648v27.61681646h-27.61681648z" fill="#515151" p-id="49325"></path><path d="M553.4178602 511.98527102h27.61681648v27.63154544h-27.61681648z" fill="#515151" p-id="49326"></path><path d="M553.4178602 484.38318354h27.61681648V512h-27.61681648z m0-27.61681646h27.61681648v27.61681646h-27.61681648z" fill="#515151" p-id="49327"></path><path d="M553.4178602 429.14955061h27.61681648v27.63154543h-27.61681648z" fill="#515151" p-id="49328"></path><path d="M553.4178602 401.53273415h27.61681648v27.61681646h-27.61681648z" fill="#515151" p-id="49329"></path><path d="M553.4178602 373.93064667h27.61681648v27.61681647h-27.61681648z m0-27.63154543h27.61681648v27.63154543h-27.61681648z m0-27.61681647h27.61681648v27.61681647h-27.61681648z" fill="#515151" p-id="49330"></path><path d="M553.4178602 291.0654683h27.61681648v27.63154545h-27.61681648z m0-27.61681645h27.61681648V291.0654683h-27.61681648z" fill="#515151" p-id="49331"></path><path d="M553.4178602 235.84656437h27.61681648v27.61681645h-27.61681648z m0-27.63154544h27.61681648v27.63154544h-27.61681648z m0-27.61681646h27.61681648v27.61681646h-27.61681648z" fill="#515151" p-id="49332"></path><path d="M553.4178602 152.98138602h27.61681648v27.63154541h-27.61681648z m0-27.61681647h27.61681648v27.61681647h-27.61681648z" fill="#515151" p-id="49333"></path><path d="M553.4178602 97.76248206h27.61681648v27.61681646h-27.61681648z m0-27.63154543h27.61681648v27.63154543h-27.61681648z m-27.6020875 690.42041152h27.61681647v27.61681645h-27.61681647z m0-27.61681645h27.61681647v27.61681645h-27.61681647z" fill="#515151" p-id="49334"></path><path d="M525.8157727 705.31771523h27.61681647v27.63154543h-27.61681647z m0-27.61681647h27.61681647v27.61681647h-27.61681647z m0-27.63154543h27.61681647v27.63154543h-27.61681647z" fill="#515151" p-id="49335"></path><path d="M525.8157727 622.46726585h27.61681647v27.61681646h-27.61681647z m0-27.61681646h27.61681647V622.46726585h-27.61681647z" fill="#515151" p-id="49336"></path><path d="M525.8157727 567.23363292h27.61681647v27.63154544h-27.61681647z m0-27.61681646h27.61681647v27.61681646h-27.61681647z" fill="#515151" p-id="49337"></path><path d="M525.8157727 511.98527102h27.61681647v27.63154544h-27.61681647z" fill="#515151" p-id="49338"></path><path d="M525.8157727 484.38318354h27.61681647V512h-27.61681647z m0-27.61681646h27.61681647v27.61681646h-27.61681647z" fill="#515151" p-id="49339"></path><path d="M525.8157727 429.14955061h27.61681647v27.63154543h-27.61681647z" fill="#515151" p-id="49340"></path><path d="M525.8157727 401.53273415h27.61681647v27.61681646h-27.61681647z" fill="#515151" p-id="49341"></path><path d="M525.8157727 373.93064667h27.61681647v27.61681647h-27.61681647z m0-27.63154543h27.61681647v27.63154543h-27.61681647z m0-27.61681647h27.61681647v27.61681647h-27.61681647z" fill="#515151" p-id="49342"></path><path d="M525.8157727 291.0654683h27.61681647v27.63154545h-27.61681647z m0-27.61681645h27.61681647V291.0654683h-27.61681647z" fill="#515151" p-id="49343"></path><path d="M525.8157727 235.84656437h27.61681647v27.61681645h-27.61681647z m0-27.63154544h27.61681647v27.63154544h-27.61681647z m0-27.61681646h27.61681647v27.61681646h-27.61681647z" fill="#515151" p-id="49344"></path><path d="M525.8157727 152.98138602h27.61681647v27.63154541h-27.61681647z m0-27.61681647h27.61681647v27.61681647h-27.61681647z" fill="#515151" p-id="49345"></path><path d="M525.8157727 97.76248206h27.61681647v27.61681646h-27.61681647z m0-27.63154543h27.61681647v27.63154543h-27.61681647z m-27.6315454 690.42041152h27.6315454v27.61681645h-27.6315454z m0-27.61681645h27.6315454v27.61681645h-27.6315454z" fill="#515151" p-id="49346"></path><path d="M498.1842273 705.31771523h27.6315454v27.63154543h-27.6315454z m0-27.61681647h27.6315454v27.61681647h-27.6315454z m0-27.63154543h27.6315454v27.63154543h-27.6315454z" fill="#515151" p-id="49347"></path><path d="M498.1842273 622.46726585h27.6315454v27.61681646h-27.6315454z m0-27.61681646h27.6315454V622.46726585h-27.6315454z" fill="#515151" p-id="49348"></path><path d="M498.1842273 567.23363292h27.6315454v27.63154544h-27.6315454z m0-27.61681646h27.6315454v27.61681646h-27.6315454z" fill="#515151" p-id="49349"></path><path d="M498.1842273 511.98527102h27.6315454v27.63154544h-27.6315454z" fill="#515151" p-id="49350"></path><path d="M498.1842273 484.38318354h27.6315454V512h-27.6315454z m0-27.61681646h27.6315454v27.61681646h-27.6315454z" fill="#515151" p-id="49351"></path><path d="M498.1842273 429.14955061h27.6315454v27.63154543h-27.6315454z" fill="#515151" p-id="49352"></path><path d="M498.1842273 401.53273415h27.6315454v27.61681646h-27.6315454z" fill="#515151" p-id="49353"></path><path d="M498.1842273 373.93064667h27.6315454v27.61681647h-27.6315454z m0-27.63154543h27.6315454v27.63154543h-27.6315454z m0-27.61681647h27.6315454v27.61681647h-27.6315454z" fill="#515151" p-id="49354"></path><path d="M498.1842273 291.0654683h27.6315454v27.63154545h-27.6315454z m0-27.61681645h27.6315454V291.0654683h-27.6315454z" fill="#515151" p-id="49355"></path><path d="M498.1842273 235.84656437h27.6315454v27.61681645h-27.6315454z m0-27.63154544h27.6315454v27.63154544h-27.6315454z m0-27.61681646h27.6315454v27.61681646h-27.6315454z" fill="#515151" p-id="49356"></path><path d="M498.1842273 152.98138602h27.6315454v27.63154541h-27.6315454z m0-27.61681647h27.6315454v27.61681647h-27.6315454z" fill="#515151" p-id="49357"></path><path d="M498.1842273 97.76248206h27.6315454v27.61681646h-27.6315454z m0-27.63154543h27.6315454v27.63154543h-27.6315454z m-27.6020875 690.42041152h27.61681645v27.61681645h-27.61681645z m0-27.61681645h27.61681645v27.61681645h-27.61681645z" fill="#515151" p-id="49358"></path><path d="M470.5821398 705.31771523h27.61681645v27.63154543h-27.61681645z m0-27.61681647h27.61681645v27.61681647h-27.61681645z m0-27.63154543h27.61681645v27.63154543h-27.61681645z" fill="#515151" p-id="49359"></path><path d="M470.5821398 622.46726585h27.61681645v27.61681646h-27.61681645z m0-27.61681646h27.61681645V622.46726585h-27.61681645z" fill="#515151" p-id="49360"></path><path d="M470.5821398 567.23363292h27.61681645v27.63154544h-27.61681645z m0-27.61681646h27.61681645v27.61681646h-27.61681645z" fill="#515151" p-id="49361"></path><path d="M470.5821398 511.98527102h27.61681645v27.63154544h-27.61681645z" fill="#515151" p-id="49362"></path><path d="M470.5821398 484.38318354h27.61681645V512h-27.61681645z m0-27.61681646h27.61681645v27.61681646h-27.61681645z" fill="#515151" p-id="49363"></path><path d="M470.5821398 429.14955061h27.61681645v27.63154543h-27.61681645z" fill="#515151" p-id="49364"></path><path d="M470.5821398 401.53273415h27.61681645v27.61681646h-27.61681645z" fill="#515151" p-id="49365"></path><path d="M470.5821398 373.93064667h27.61681645v27.61681647h-27.61681645z m0-27.63154543h27.61681645v27.63154543h-27.61681645z m0-27.61681647h27.61681645v27.61681647h-27.61681645z" fill="#515151" p-id="49366"></path><path d="M470.5821398 291.0654683h27.61681645v27.63154545h-27.61681645z m0-27.61681645h27.61681645V291.0654683h-27.61681645z" fill="#515151" p-id="49367"></path><path d="M470.5821398 235.84656437h27.61681645v27.61681645h-27.61681645z m0-27.63154544h27.61681645v27.63154544h-27.61681645z m0-27.61681646h27.61681645v27.61681646h-27.61681645z" fill="#515151" p-id="49368"></path><path d="M470.5821398 152.98138602h27.61681645v27.63154541h-27.61681645z m0-27.61681647h27.61681645v27.61681647h-27.61681645z" fill="#515151" p-id="49369"></path><path d="M470.5821398 97.76248206h27.61681645v27.61681646h-27.61681645z m0-27.63154543h27.61681645v27.63154543h-27.61681645z m-27.61681648 690.42041152h27.61681648v27.61681645h-27.61681648z m0-27.61681645h27.61681648v27.61681645h-27.61681648z" fill="#515151" p-id="49370"></path><path d="M442.96532332 705.31771523h27.61681648v27.63154543h-27.61681648z m0-27.61681647h27.61681648v27.61681647h-27.61681648z m0-27.63154543h27.61681648v27.63154543h-27.61681648z" fill="#515151" p-id="49371"></path><path d="M442.96532332 622.46726585h27.61681648v27.61681646h-27.61681648z m0-27.61681646h27.61681648V622.46726585h-27.61681648z" fill="#515151" p-id="49372"></path><path d="M442.96532332 567.23363292h27.61681648v27.63154544h-27.61681648z m0-27.61681646h27.61681648v27.61681646h-27.61681648z" fill="#515151" p-id="49373"></path><path d="M442.96532332 511.98527102h27.61681648v27.63154544h-27.61681648z" fill="#515151" p-id="49374"></path><path d="M442.96532332 484.38318354h27.61681648V512h-27.61681648z m0-27.61681646h27.61681648v27.61681646h-27.61681648z" fill="#515151" p-id="49375"></path><path d="M442.96532332 429.14955061h27.61681648v27.63154543h-27.61681648z" fill="#515151" p-id="49376"></path><path d="M442.96532332 401.53273415h27.61681648v27.61681646h-27.61681648z" fill="#515151" p-id="49377"></path><path d="M442.96532332 373.93064667h27.61681648v27.61681647h-27.61681648z m0-27.63154543h27.61681648v27.63154543h-27.61681648z m0-27.61681647h27.61681648v27.61681647h-27.61681648z" fill="#515151" p-id="49378"></path><path d="M442.96532332 291.0654683h27.61681648v27.63154545h-27.61681648z m0-27.61681645h27.61681648V291.0654683h-27.61681648z" fill="#515151" p-id="49379"></path><path d="M442.96532332 235.84656437h27.61681648v27.61681645h-27.61681648z m0-27.63154544h27.61681648v27.63154544h-27.61681648z m0-27.61681646h27.61681648v27.61681646h-27.61681648z" fill="#515151" p-id="49380"></path><path d="M442.96532332 152.98138602h27.61681648v27.63154541h-27.61681648z m0-27.61681647h27.61681648v27.61681647h-27.61681648z" fill="#515151" p-id="49381"></path><path d="M442.96532332 97.76248206h27.61681648v27.61681646h-27.61681648z m0-27.63154543h27.61681648v27.63154543h-27.61681648z m-27.63154541 745.65404444h27.63154541V843.40179753h-27.63154541z m0-27.63154544h27.63154541v27.63154544h-27.63154541z" fill="#515151" p-id="49382"></path><path d="M415.33377791 760.55134815h27.63154541v27.61681645h-27.63154541z m0-27.61681645h27.63154541v27.61681645h-27.63154541z" fill="#515151" p-id="49383"></path><path d="M415.33377791 705.31771523h27.63154541v27.63154543h-27.63154541z m0-27.61681647h27.63154541v27.61681647h-27.63154541z m0-27.63154543h27.63154541v27.63154543h-27.63154541z" fill="#515151" p-id="49384"></path><path d="M415.33377791 622.46726585h27.63154541v27.61681646h-27.63154541z m0-27.61681646h27.63154541V622.46726585h-27.63154541z" fill="#515151" p-id="49385"></path><path d="M415.33377791 567.23363292h27.63154541v27.63154544h-27.63154541z m0-27.61681646h27.63154541v27.61681646h-27.63154541z m0-27.63154544h27.63154541v27.63154544h-27.63154541z" fill="#515151" p-id="49386"></path><path d="M415.33377791 484.38318354h27.63154541V512h-27.63154541z m0-27.61681646h27.63154541v27.61681646h-27.63154541z" fill="#515151" p-id="49387"></path><path d="M415.33377791 429.14955061h27.63154541v27.63154543h-27.63154541z" fill="#515151" p-id="49388"></path><path d="M415.33377791 401.53273415h27.63154541v27.61681646h-27.63154541z" fill="#515151" p-id="49389"></path><path d="M415.33377791 373.93064667h27.63154541v27.61681647h-27.63154541z m0-27.63154543h27.63154541v27.63154543h-27.63154541z" fill="#515151" p-id="49390"></path><path d="M415.33377791 318.68228477h27.63154541v27.61681647h-27.63154541z" fill="#515151" p-id="49391"></path><path d="M415.33377791 291.0654683h27.63154541v27.63154545h-27.63154541z" fill="#515151" p-id="49392"></path><path d="M415.33377791 263.44865185h27.63154541V291.0654683h-27.63154541z" fill="#515151" p-id="49393"></path><path d="M415.33377791 235.84656437h27.63154541v27.61681645h-27.63154541z" fill="#515151" p-id="49394"></path><path d="M415.33377791 208.21501893h27.63154541v27.63154544h-27.63154541z m0-27.61681646h27.63154541v27.61681646h-27.63154541z" fill="#515151" p-id="49395"></path><path d="M415.33377791 152.98138602h27.63154541v27.63154541h-27.63154541z m0-27.61681647h27.63154541v27.61681647h-27.63154541z" fill="#515151" p-id="49396"></path><path d="M415.33377791 97.76248206h27.63154541v27.61681646h-27.63154541z m0-27.63154543h27.63154541v27.63154543h-27.63154541z m-27.60208749 745.65404444h27.61681644V843.40179753h-27.61681644z m0-27.63154544h27.61681644v27.63154544h-27.61681644z" fill="#515151" p-id="49397"></path><path d="M387.73169042 760.55134815h27.61681644v27.61681645h-27.61681644z m0-27.61681645h27.61681644v27.61681645h-27.61681644z" fill="#515151" p-id="49398"></path><path d="M387.73169042 705.31771523h27.61681644v27.63154543h-27.61681644z m0-27.61681647h27.61681644v27.61681647h-27.61681644z m0-27.63154543h27.61681644v27.63154543h-27.61681644z" fill="#515151" p-id="49399"></path><path d="M387.73169042 622.46726585h27.61681644v27.61681646h-27.61681644z m0-27.61681646h27.61681644V622.46726585h-27.61681644z" fill="#515151" p-id="49400"></path><path d="M387.73169042 567.23363292h27.61681644v27.63154544h-27.61681644z m0-27.61681646h27.61681644v27.61681646h-27.61681644z m0-27.63154544h27.61681644v27.63154544h-27.61681644z" fill="#515151" p-id="49401"></path><path d="M387.73169042 484.38318354h27.61681644V512h-27.61681644z m0-27.61681646h27.61681644v27.61681646h-27.61681644z" fill="#515151" p-id="49402"></path><path d="M387.73169042 429.14955061h27.61681644v27.63154543h-27.61681644z" fill="#515151" p-id="49403"></path><path d="M387.73169042 401.53273415h27.61681644v27.61681646h-27.61681644z" fill="#515151" p-id="49404"></path><path d="M387.73169042 373.93064667h27.61681644v27.61681647h-27.61681644z m0-27.63154543h27.61681644v27.63154543h-27.61681644z" fill="#515151" p-id="49405"></path><path d="M387.73169042 318.68228477h27.61681644v27.61681647h-27.61681644z" fill="#515151" p-id="49406"></path><path d="M387.73169042 291.0654683h27.61681644v27.63154545h-27.61681644z" fill="#515151" p-id="49407"></path><path d="M387.73169042 263.44865185h27.61681644V291.0654683h-27.61681644z" fill="#515151" p-id="49408"></path><path d="M387.73169042 235.84656437h27.61681644v27.61681645h-27.61681644z" fill="#515151" p-id="49409"></path><path d="M387.73169042 208.21501893h27.61681644v27.63154544h-27.61681644z m0-27.61681646h27.61681644v27.61681646h-27.61681644z" fill="#515151" p-id="49410"></path><path d="M387.73169042 152.98138602h27.61681644v27.63154541h-27.61681644z m0-27.61681647h27.61681644v27.61681647h-27.61681644z" fill="#515151" p-id="49411"></path><path d="M387.73169042 97.76248206h27.61681644v27.61681646h-27.61681644z m0-27.63154543h27.61681644v27.63154543h-27.61681644z" fill="#515151" p-id="49412"></path><path d="M360.10014498 926.23751794h27.63154544V953.86906337h-27.63154544z" fill="#515151" p-id="49413"></path><path d="M360.10014498 898.63543045h27.63154544v27.61681646h-27.63154544z m0-27.63154544h27.63154544v27.63154544h-27.63154544z" fill="#515151" p-id="49414"></path><path d="M360.10014498 843.40179753h27.63154544v27.61681645h-27.63154544z" fill="#515151" p-id="49415"></path><path d="M360.10014498 815.78498107h27.63154544V843.40179753h-27.63154544z m0-27.63154544h27.63154544v27.63154544h-27.63154544z" fill="#515151" p-id="49416"></path><path d="M360.10014498 760.55134815h27.63154544v27.61681645h-27.63154544z" fill="#515151" p-id="49417"></path><path d="M360.10014498 732.9345317h27.63154544v27.61681645h-27.63154544z" fill="#515151" p-id="49418"></path><path d="M360.10014498 705.31771523h27.63154544v27.63154543h-27.63154544z m0-27.61681647h27.63154544v27.61681647h-27.63154544z m0-27.63154543h27.63154544v27.63154543h-27.63154544z" fill="#515151" p-id="49419"></path><path d="M360.10014498 622.46726585h27.63154544v27.61681646h-27.63154544z m0-27.61681646h27.63154544V622.46726585h-27.63154544z" fill="#515151" p-id="49420"></path><path d="M360.10014498 567.23363292h27.63154544v27.63154544h-27.63154544z m0-27.61681646h27.63154544v27.61681646h-27.63154544z m0-27.63154544h27.63154544v27.63154544h-27.63154544z" fill="#515151" p-id="49421"></path><path d="M360.10014498 484.38318354h27.63154544V512h-27.63154544z m0-27.61681646h27.63154544v27.61681646h-27.63154544z" fill="#515151" p-id="49422"></path><path d="M360.10014498 429.14955061h27.63154544v27.63154543h-27.63154544z" fill="#515151" p-id="49423"></path><path d="M360.10014498 401.53273415h27.63154544v27.61681646h-27.63154544z" fill="#515151" p-id="49424"></path><path d="M360.10014498 373.93064667h27.63154544v27.61681647h-27.63154544z m0-27.63154543h27.63154544v27.63154543h-27.63154544z" fill="#515151" p-id="49425"></path><path d="M360.10014498 318.68228477h27.63154544v27.61681647h-27.63154544z" fill="#515151" p-id="49426"></path><path d="M360.10014498 291.0654683h27.63154544v27.63154545h-27.63154544z m0-27.61681645h27.63154544V291.0654683h-27.63154544z" fill="#515151" p-id="49427"></path><path d="M360.10014498 235.84656437h27.63154544v27.61681645h-27.63154544z m0-27.63154544h27.63154544v27.63154544h-27.63154544z m0-27.61681646h27.63154544v27.61681646h-27.63154544z" fill="#515151" p-id="49428"></path><path d="M360.10014498 152.98138602h27.63154544v27.63154541h-27.63154544z m0-27.61681647h27.63154544v27.61681647h-27.63154544z" fill="#515151" p-id="49429"></path><path d="M360.10014498 97.76248206h27.63154544v27.61681646h-27.63154544z m0-27.63154543h27.63154544v27.63154543h-27.63154544z" fill="#515151" p-id="49430"></path><path d="M332.49805748 926.23751794h27.61681647V953.86906337h-27.61681647z" fill="#515151" p-id="49431"></path><path d="M332.49805748 898.63543045h27.61681647v27.61681646h-27.61681647z m0-27.63154544h27.61681647v27.63154544h-27.61681647z" fill="#515151" p-id="49432"></path><path d="M332.49805748 843.40179753h27.61681647v27.61681645h-27.61681647z" fill="#515151" p-id="49433"></path><path d="M332.49805748 815.78498107h27.61681647V843.40179753h-27.61681647z m0-27.63154544h27.61681647v27.63154544h-27.61681647z" fill="#515151" p-id="49434"></path><path d="M332.49805748 760.55134815h27.61681647v27.61681645h-27.61681647z m0-27.61681645h27.61681647v27.61681645h-27.61681647z" fill="#515151" p-id="49435"></path><path d="M332.49805748 705.31771523h27.61681647v27.63154543h-27.61681647z m0-27.61681647h27.61681647v27.61681647h-27.61681647z m0-27.63154543h27.61681647v27.63154543h-27.61681647z" fill="#515151" p-id="49436"></path><path d="M332.49805748 622.46726585h27.61681647v27.61681646h-27.61681647z m0-27.61681646h27.61681647V622.46726585h-27.61681647z" fill="#515151" p-id="49437"></path><path d="M332.49805748 567.23363292h27.61681647v27.63154544h-27.61681647z m0-27.61681646h27.61681647v27.61681646h-27.61681647z m0-27.63154544h27.61681647v27.63154544h-27.61681647z" fill="#515151" p-id="49438"></path><path d="M332.49805748 484.38318354h27.61681647V512h-27.61681647z m0-27.61681646h27.61681647v27.61681646h-27.61681647z" fill="#515151" p-id="49439"></path><path d="M332.49805748 429.14955061h27.61681647v27.63154543h-27.61681647z" fill="#515151" p-id="49440"></path><path d="M332.49805748 401.53273415h27.61681647v27.61681646h-27.61681647z" fill="#515151" p-id="49441"></path><path d="M332.49805748 373.93064667h27.61681647v27.61681647h-27.61681647z m0-27.63154543h27.61681647v27.63154543h-27.61681647z" fill="#515151" p-id="49442"></path><path d="M332.49805748 318.68228477h27.61681647v27.61681647h-27.61681647z" fill="#515151" p-id="49443"></path><path d="M332.49805748 291.0654683h27.61681647v27.63154545h-27.61681647z m0-27.61681645h27.61681647V291.0654683h-27.61681647z" fill="#515151" p-id="49444"></path><path d="M332.49805748 235.84656437h27.61681647v27.61681645h-27.61681647z m0-27.63154544h27.61681647v27.63154544h-27.61681647z m0-27.61681646h27.61681647v27.61681646h-27.61681647z" fill="#515151" p-id="49445"></path><path d="M332.49805748 152.98138602h27.61681647v27.63154541h-27.61681647z m0-27.61681647h27.61681647v27.61681647h-27.61681647z" fill="#515151" p-id="49446"></path><path d="M332.49805748 97.76248206h27.61681647v27.61681646h-27.61681647z m0-27.63154543h27.61681647v27.63154543h-27.61681647z" fill="#515151" p-id="49447"></path><path d="M304.88124103 926.23751794h27.61681645V953.86906337h-27.61681645z" fill="#515151" p-id="49448"></path><path d="M304.88124103 898.63543045h27.61681645v27.61681646h-27.61681645z m0-27.63154544h27.61681645v27.63154544h-27.61681645z" fill="#515151" p-id="49449"></path><path d="M304.88124103 843.40179753h27.61681645v27.61681645h-27.61681645z" fill="#515151" p-id="49450"></path><path d="M304.88124103 815.78498107h27.61681645V843.40179753h-27.61681645z m0-27.63154544h27.61681645v27.63154544h-27.61681645z" fill="#515151" p-id="49451"></path><path d="M304.88124103 760.55134815h27.61681645v27.61681645h-27.61681645z m0-27.61681645h27.61681645v27.61681645h-27.61681645z" fill="#515151" p-id="49452"></path><path d="M304.88124103 705.31771523h27.61681645v27.63154543h-27.61681645z" fill="#515151" p-id="49453"></path><path d="M304.88124103 677.70089876h27.61681645v27.61681647h-27.61681645z m0-27.63154543h27.61681645v27.63154543h-27.61681645z" fill="#515151" p-id="49454"></path><path d="M304.88124103 622.46726585h27.61681645v27.61681646h-27.61681645z m0-27.61681646h27.61681645V622.46726585h-27.61681645z" fill="#515151" p-id="49455"></path><path d="M304.88124103 567.23363292h27.61681645v27.63154544h-27.61681645z m0-27.61681646h27.61681645v27.61681646h-27.61681645z m0-27.63154544h27.61681645v27.63154544h-27.61681645z" fill="#515151" p-id="49456"></path><path d="M304.88124103 484.38318354h27.61681645V512h-27.61681645z m0-27.61681646h27.61681645v27.61681646h-27.61681645z" fill="#515151" p-id="49457"></path><path d="M304.88124103 429.14955061h27.61681645v27.63154543h-27.61681645z m0-55.21890394h27.61681645v27.61681647h-27.61681645z m0-27.63154543h27.61681645v27.63154543h-27.61681645z" fill="#515151" p-id="49458"></path><path d="M304.88124103 318.68228477h27.61681645v27.61681647h-27.61681645z" fill="#515151" p-id="49459"></path><path d="M304.88124103 291.0654683h27.61681645v27.63154545h-27.61681645z m0-27.61681645h27.61681645V291.0654683h-27.61681645z" fill="#515151" p-id="49460"></path><path d="M304.88124103 235.84656437h27.61681645v27.61681645h-27.61681645z" fill="#515151" p-id="49461"></path><path d="M304.88124103 208.21501893h27.61681645v27.63154544h-27.61681645z m0-27.61681646h27.61681645v27.61681646h-27.61681645z" fill="#515151" p-id="49462"></path><path d="M304.88124103 152.98138602h27.61681645v27.63154541h-27.61681645z m0-27.61681647h27.61681645v27.61681647h-27.61681645z" fill="#515151" p-id="49463"></path><path d="M277.24969559 926.23751794h27.63154544V953.86906337h-27.63154544z" fill="#515151" p-id="49464"></path><path d="M277.24969559 898.63543045h27.63154544v27.61681646h-27.63154544z m0-27.63154544h27.63154544v27.63154544h-27.63154544z" fill="#515151" p-id="49465"></path><path d="M277.24969559 843.40179753h27.63154544v27.61681645h-27.63154544z" fill="#515151" p-id="49466"></path><path d="M277.24969559 815.78498107h27.63154544V843.40179753h-27.63154544z m0-27.63154544h27.63154544v27.63154544h-27.63154544z" fill="#515151" p-id="49467"></path><path d="M277.24969559 760.55134815h27.63154544v27.61681645h-27.63154544z m0-27.61681645h27.63154544v27.61681645h-27.63154544z" fill="#515151" p-id="49468"></path><path d="M277.24969559 705.31771523h27.63154544v27.63154543h-27.63154544z" fill="#515151" p-id="49469"></path><path d="M277.24969559 677.70089876h27.63154544v27.61681647h-27.63154544z m0-27.63154543h27.63154544v27.63154543h-27.63154544z" fill="#515151" p-id="49470"></path><path d="M277.24969559 622.46726585h27.63154544v27.61681646h-27.63154544z m0-27.61681646h27.63154544V622.46726585h-27.63154544z" fill="#515151" p-id="49471"></path><path d="M277.24969559 567.23363292h27.63154544v27.63154544h-27.63154544z m0-27.61681646h27.63154544v27.61681646h-27.63154544z m0-27.63154544h27.63154544v27.63154544h-27.63154544z" fill="#515151" p-id="49472"></path><path d="M277.24969559 484.38318354h27.63154544V512h-27.63154544z m0-27.61681646h27.63154544v27.61681646h-27.63154544z" fill="#515151" p-id="49473"></path><path d="M277.24969559 429.14955061h27.63154544v27.63154543h-27.63154544z m0-55.21890394h27.63154544v27.61681647h-27.63154544z m0-27.63154543h27.63154544v27.63154543h-27.63154544z" fill="#515151" p-id="49474"></path><path d="M277.24969559 318.68228477h27.63154544v27.61681647h-27.63154544z" fill="#515151" p-id="49475"></path><path d="M277.24969559 291.0654683h27.63154544v27.63154545h-27.63154544z m0-27.61681645h27.63154544V291.0654683h-27.63154544z" fill="#515151" p-id="49476"></path><path d="M277.24969559 235.84656437h27.63154544v27.61681645h-27.63154544z" fill="#515151" p-id="49477"></path><path d="M277.24969559 208.21501893h27.63154544v27.63154544h-27.63154544z m0-27.61681646h27.63154544v27.61681646h-27.63154544z" fill="#515151" p-id="49478"></path><path d="M277.24969559 152.98138602h27.63154544v27.63154541h-27.63154544z m0-27.61681647h27.63154544v27.61681647h-27.63154544z" fill="#515151" p-id="49479"></path><path d="M249.64760811 926.23751794h27.61681646V953.86906337h-27.61681646z" fill="#515151" p-id="49480"></path><path d="M249.64760811 898.63543045h27.61681646v27.61681646h-27.61681646z m0-27.63154544h27.61681646v27.63154544h-27.61681646z" fill="#515151" p-id="49481"></path><path d="M249.64760811 843.40179753h27.61681646v27.61681645h-27.61681646z" fill="#515151" p-id="49482"></path><path d="M249.64760811 732.9345317h27.61681646v27.61681645h-27.61681646z" fill="#515151" p-id="49483"></path><path d="M249.64760811 705.31771523h27.61681646v27.63154543h-27.61681646z m0-27.61681647h27.61681646v27.61681647h-27.61681646z m0-27.63154543h27.61681646v27.63154543h-27.61681646z" fill="#515151" p-id="49484"></path><path d="M249.64760811 622.46726585h27.61681646v27.61681646h-27.61681646z m0-27.61681646h27.61681646V622.46726585h-27.61681646z" fill="#515151" p-id="49485"></path><path d="M249.64760811 567.23363292h27.61681646v27.63154544h-27.61681646z m0-27.61681646h27.61681646v27.61681646h-27.61681646z m0-27.63154544h27.61681646v27.63154544h-27.61681646z" fill="#515151" p-id="49486"></path><path d="M249.64760811 484.38318354h27.61681646V512h-27.61681646z m0-110.45253687h27.61681646v27.61681647h-27.61681646z m0-27.63154543h27.61681646v27.63154543h-27.61681646z m0-27.61681647h27.61681646v27.61681647h-27.61681646z" fill="#515151" p-id="49487"></path><path d="M249.64760811 291.0654683h27.61681646v27.63154545h-27.61681646z m0-27.61681645h27.61681646V291.0654683h-27.61681646z" fill="#515151" p-id="49488"></path><path d="M249.64760811 235.84656437h27.61681646v27.61681645h-27.61681646z m-27.63154543 690.39095357h27.63154543V953.86906337h-27.63154543z" fill="#515151" p-id="49489"></path><path d="M222.01606268 898.63543045h27.63154543v27.61681646h-27.63154543z m0-27.63154544h27.63154543v27.63154544h-27.63154543z" fill="#515151" p-id="49490"></path><path d="M222.01606268 843.40179753h27.63154543v27.61681645h-27.63154543z" fill="#515151" p-id="49491"></path><path d="M222.01606268 732.9345317h27.63154543v27.61681645h-27.63154543z" fill="#515151" p-id="49492"></path><path d="M222.01606268 705.31771523h27.63154543v27.63154543h-27.63154543z m0-27.61681647h27.63154543v27.61681647h-27.63154543z m0-27.63154543h27.63154543v27.63154543h-27.63154543z" fill="#515151" p-id="49493"></path><path d="M222.01606268 622.46726585h27.63154543v27.61681646h-27.63154543z m0-27.61681646h27.63154543V622.46726585h-27.63154543z" fill="#515151" p-id="49494"></path><path d="M222.01606268 567.23363292h27.63154543v27.63154544h-27.63154543z m0-27.61681646h27.63154543v27.61681646h-27.63154543z m0-27.63154544h27.63154543v27.63154544h-27.63154543z" fill="#515151" p-id="49495"></path><path d="M222.01606268 484.38318354h27.63154543V512h-27.63154543z m0-110.45253687h27.63154543v27.61681647h-27.63154543z m0-27.63154543h27.63154543v27.63154543h-27.63154543z m0-27.61681647h27.63154543v27.61681647h-27.63154543z" fill="#515151" p-id="49496"></path><path d="M222.01606268 291.0654683h27.63154543v27.63154545h-27.63154543z m0-27.61681645h27.63154543V291.0654683h-27.63154543z" fill="#515151" p-id="49497"></path><path d="M222.01606268 235.84656437h27.63154543v27.61681645h-27.63154543z m-27.6020875 690.39095357h27.61681647V953.86906337h-27.61681647z" fill="#515151" p-id="49498"></path><path d="M194.41397518 898.63543045h27.61681647v27.61681646h-27.61681647z" fill="#515151" p-id="49499"></path><path d="M194.41397518 732.9345317h27.61681647v27.61681645h-27.61681647z" fill="#515151" p-id="49500"></path><path d="M194.41397518 705.31771523h27.61681647v27.63154543h-27.61681647z m0-27.61681647h27.61681647v27.61681647h-27.61681647z m0-27.63154543h27.61681647v27.63154543h-27.61681647z" fill="#515151" p-id="49501"></path><path d="M194.41397518 622.46726585h27.61681647v27.61681646h-27.61681647z m0-27.61681646h27.61681647V622.46726585h-27.61681647z" fill="#515151" p-id="49502"></path><path d="M194.41397518 567.23363292h27.61681647v27.63154544h-27.61681647z m0-27.61681646h27.61681647v27.61681646h-27.61681647z m-27.61681646 386.62070148h27.61681646V953.86906337h-27.61681646z" fill="#515151" p-id="49503"></path><path d="M166.79715872 898.63543045h27.61681646v27.61681646h-27.61681646z" fill="#515151" p-id="49504"></path><path d="M166.79715872 732.9345317h27.61681646v27.61681645h-27.61681646z" fill="#515151" p-id="49505"></path><path d="M166.79715872 705.31771523h27.61681646v27.63154543h-27.61681646z m0-27.61681647h27.61681646v27.61681647h-27.61681646z m0-27.63154543h27.61681646v27.63154543h-27.61681646z" fill="#515151" p-id="49506"></path><path d="M166.79715872 622.46726585h27.61681646v27.61681646h-27.61681646z m0-27.61681646h27.61681646V622.46726585h-27.61681646z" fill="#515151" p-id="49507"></path><path d="M166.79715872 567.23363292h27.61681646v27.63154544h-27.61681646z m0-27.61681646h27.61681646v27.61681646h-27.61681646z" fill="#515151" p-id="49508"></path></svg>